# xmcd
#
# Track frame offsets:
#	150
#	13594
#	36570
#	52146
#	61784
#	79008
#	95685
#	111368
#	126716
#	143090
#	157820
#
# Disc length: 2267 seconds
# Revision: 0
# Processed by: cddbd v1.5.2PL0 Copyright (c) Steve Scherf et al.
# Submitted via: dBpowerAMP V12.0
#
DISCID=9908d90b
DTITLE=Phillip Walker - The Bottom of the Top
DYEAR=1973
DGENRE=Blues
TTITLE0=I Can't Lose With the Stuff I Use
TTITLE1=Tin Pan Alley
TTITLE2=Hello Central
TTITLE3=Hello, My Darling
TTITLE4=Laughing and Clowning
TTITLE5=Crazy Girl
TTITLE6=It's All in Your Mind
TTITLE7=The Bottom of the Top
TTITLE8=Hey, Hey Baby's Gone
TTITLE9=Cryin' Time
TTITLE10=The Struggle
EXTD=
EXTT0=
EXTT1=
EXTT2=
EXTT3=
EXTT4=
EXTT5=
EXTT6=
EXTT7=
EXTT8=
EXTT9=
EXTT10=
PLAYORDER=
